<?xml version="1.0" encoding="UTF-8"?>
<svg id="Layer_2" data-name="Layer 2" xmlns="http://www.w3.org/2000/svg" viewBox="0 0 259.38 89.31">
  <defs>
    <style>
      .cls-1 {
        fill: #fcb43e;
      }

      .cls-1, .cls-2, .cls-3, .cls-4 {
        stroke-width: 0px;
      }

      .cls-2 {
        fill: #fcb33d;
      }

      .cls-3 {
        fill: #fcb33c;
      }

      .cls-4 {
        fill: #fcb43f;
      }
    </style>
  </defs>
  <g id="Layer_1-2" data-name="Layer 1">
    <g>
      <path class="cls-3" d="M103.55,34.95c-7.17-3.3-14.22-10.1-20.76,1.33-3.37,5.88-7.41,11.61-14.73,15.91,1.37-6.06,2.67-11.02,3.6-16.05C74.78,19.27,63.33,3.39,46.15.59,24.62-2.93,4.16,14.27.62,38.87c-3.88,26.94,10.92,48.15,35.93,50.19,31.4,2.57,51.73-15.01,68.32-38.36,3.68-5.17,8.51-11.23-1.31-15.75ZM31.5,54.41c-4.98.25-6.27-5.18-5.17-9.25,1.95-7.21,2.96-16.21,12.67-17.18,6.39-.64,5.4,5.61,6.01,9.63-2.59,7.38-3.59,16.31-13.51,16.8Z"/>
      <path class="cls-4" d="M181.32,65.27c-6.2-.34-12.44-.52-18.63-.18-6.72.37-10.54-.49-10.56-8.93-.01-8.81,4.53-8.93,10.87-8.58,4.13.23,8.29.11,12.43-.01,3.17-.09,7.67.73,7.83-3.72.17-4.69-4.15-5.44-8.1-5.49-4.97-.06-9.96-.31-14.91.02-5.89.39-7.91-1.85-7.94-7.71-.03-6.22,2.78-7.68,8.31-7.38,5.37.29,10.78.19,16.16,0,3.48-.12,8.62,1.14,8.84-4,.19-4.46-4.2-5.46-8.2-5.45-9.12,0-18.23,0-27.35.11-7.83.09-10.77,4.1-10.36,11.71.46,8.55.07,17.14.11,25.72.12,27.31-1.84,22.74,22.9,23.03,6.21,0,12.43.06,18.64-.03,2.67-.04,5.2-1.18,5.51-3.9.4-3.58-2.54-5.06-5.54-5.23Z"/>
      <path class="cls-1" d="M198.29,14.95c-9.72,4.63-4.62,13.61-5.72,20.72-.5,3.18-.08,6.51-.08,9.77,0,6.11-.08,12.23.03,18.34.09,4.88-.35,10.93,6.59,11.03,7.7.11,6.31-6.62,5.84-10.99-1.06-9.95,2.36-14.42,12.9-13.12,3.19.39,6.67-.2,9.82-1.07,12.47-3.45,16.87-20.98,7.59-29.74-5.75-5.43-28.96-8.74-36.96-4.94ZM213.53,42.39c-7.88.98-8.87-3.16-8.58-9.41.26-5.55-.52-11.29,8.25-9.88,6.4.8,14.19.5,13.85,9.96-.3,8.33-7.14,8.53-13.51,9.32Z"/>
      <path class="cls-4" d="M259.35,45.53h-.13c0-8.13.22-16.28-.1-24.4-.15-3.88-2.27-7.44-6.7-7.36-4.76.09-5.62,3.93-5.62,7.89-.01,15.05.01,30.1-.1,45.15-.03,4.57,1.2,8.83,6.35,8.49,4.66-.3,6.41-4.41,6.33-9.03-.11-6.91-.03-13.83-.03-20.74Z"/>
      <path class="cls-2" d="M107.92,0c-9.05-.2-14.73,5.43-14.86,14.5-.13,9.45,6.33,14.39,15.06,14.43,8.87.05,14.56-5.11,14.97-14.56C122.79,4.76,116.55.2,107.92,0Z"/>
    </g>
  </g>
</svg>