<?xml version="1.0" encoding="UTF-8"?>
<svg id="Layer_2" data-name="Layer 2" xmlns="http://www.w3.org/2000/svg" viewBox="0 0 121.91 89.35">
  <defs>
    <style>
      .cls-1 {
        fill: #fcb33d;
      }

      .cls-1, .cls-2 {
        stroke-width: 0px;
      }

      .cls-2 {
        fill: #fcb33c;
      }
    </style>
  </defs>
  <g id="Layer_1-2" data-name="Layer 1">
    <path class="cls-2" d="M102.73,35.1c-6.59-2.92-13.24-10.35-19.89.1-3.89,6.12-7.88,12.22-15.65,17.37,1.61-6.86,2.91-11.53,3.79-16.26C74.12,19.38,62.86,3.45,45.86.61,24.15-3.03,3.49,14.89.45,39.99c-3.29,27.13,11.74,47.78,36.83,49.23,31.55,1.82,51.64-16.18,67.81-40.44,3.74-5.62,5.17-10.35-2.36-13.68ZM31.88,54.51c-5.2.74-6.07-4.35-6-8.63.13-8.25,7.89-18.91,13.23-18.11,5.58.84,4.86,5.53,5.55,9.31-2.3,7.39-3.33,16.08-12.78,17.43Z"/>
    <path class="cls-1" d="M107.43.04c-9.19-.56-13.97,5.26-15.55,13.69.69,9.54,5.95,14.96,14.81,15.21,8.82.25,14.87-4.58,15.2-14.03.34-9.64-5.81-14.35-14.46-14.87Z"/>
  </g>
</svg>